<mxfile host="app.diagrams.net" modified="2023-12-08T13:25:47.007Z" agent="Mozilla/5.0 (Macintosh; Intel Mac OS X 10_15_7) AppleWebKit/537.36 (KHTML, like Gecko) Chrome/119.0.0.0 Safari/537.36" version="22.1.7" etag="RDGHvyEG8pNM99_qv50h" type="device">
  <diagram id="TziWYEWXEcgfzG4ZPO3e" name="Page-1">
    <mxGraphModel dx="1078" dy="1034" grid="1" gridSize="10" guides="1" tooltips="1" connect="1" arrows="1" fold="1" page="1" pageScale="1" pageWidth="827" pageHeight="1169" math="0" shadow="0">
      <root>
        <mxCell id="0" />
        <mxCell id="1" parent="0" />
        <mxCell id="zwpz-Yyx9_aqASB1aMjd-3" value="" style="edgeStyle=orthogonalEdgeStyle;rounded=0;orthogonalLoop=1;jettySize=auto;html=1;" edge="1" parent="1" source="zwpz-Yyx9_aqASB1aMjd-1" target="zwpz-Yyx9_aqASB1aMjd-2">
          <mxGeometry relative="1" as="geometry" />
        </mxCell>
        <mxCell id="zwpz-Yyx9_aqASB1aMjd-1" value="Event triggers lambda" style="strokeWidth=2;html=1;shape=mxgraph.flowchart.start_2;whiteSpace=wrap;fillColor=#d5e8d4;strokeColor=#82b366;" vertex="1" parent="1">
          <mxGeometry x="360" y="510" width="100" height="100" as="geometry" />
        </mxCell>
        <mxCell id="zwpz-Yyx9_aqASB1aMjd-5" value="False" style="edgeStyle=orthogonalEdgeStyle;rounded=0;orthogonalLoop=1;jettySize=auto;html=1;" edge="1" parent="1" source="zwpz-Yyx9_aqASB1aMjd-2" target="zwpz-Yyx9_aqASB1aMjd-4">
          <mxGeometry relative="1" as="geometry" />
        </mxCell>
        <mxCell id="zwpz-Yyx9_aqASB1aMjd-10" value="" style="edgeStyle=orthogonalEdgeStyle;rounded=0;orthogonalLoop=1;jettySize=auto;html=1;" edge="1" parent="1" source="zwpz-Yyx9_aqASB1aMjd-2" target="zwpz-Yyx9_aqASB1aMjd-9">
          <mxGeometry relative="1" as="geometry" />
        </mxCell>
        <mxCell id="zwpz-Yyx9_aqASB1aMjd-2" value="Commision Matrix file?" style="rhombus;whiteSpace=wrap;html=1;strokeWidth=2;fillColor=#e1d5e7;strokeColor=#9673a6;" vertex="1" parent="1">
          <mxGeometry x="355" y="670" width="110" height="100" as="geometry" />
        </mxCell>
        <mxCell id="zwpz-Yyx9_aqASB1aMjd-7" value="" style="edgeStyle=orthogonalEdgeStyle;rounded=0;orthogonalLoop=1;jettySize=auto;html=1;" edge="1" parent="1" source="zwpz-Yyx9_aqASB1aMjd-4" target="zwpz-Yyx9_aqASB1aMjd-6">
          <mxGeometry relative="1" as="geometry" />
        </mxCell>
        <mxCell id="zwpz-Yyx9_aqASB1aMjd-8" value="False" style="edgeLabel;html=1;align=center;verticalAlign=middle;resizable=0;points=[];" vertex="1" connectable="0" parent="zwpz-Yyx9_aqASB1aMjd-7">
          <mxGeometry x="-0.1415" y="-5" relative="1" as="geometry">
            <mxPoint y="-5" as="offset" />
          </mxGeometry>
        </mxCell>
        <mxCell id="zwpz-Yyx9_aqASB1aMjd-12" value="" style="edgeStyle=orthogonalEdgeStyle;rounded=0;orthogonalLoop=1;jettySize=auto;html=1;" edge="1" parent="1" source="zwpz-Yyx9_aqASB1aMjd-4" target="zwpz-Yyx9_aqASB1aMjd-11">
          <mxGeometry relative="1" as="geometry" />
        </mxCell>
        <mxCell id="zwpz-Yyx9_aqASB1aMjd-4" value="Sales Target file?" style="rhombus;whiteSpace=wrap;html=1;strokeWidth=2;fillColor=#e1d5e7;strokeColor=#9673a6;" vertex="1" parent="1">
          <mxGeometry x="545" y="670" width="110" height="100" as="geometry" />
        </mxCell>
        <mxCell id="zwpz-Yyx9_aqASB1aMjd-6" value="Invalid file" style="rounded=1;whiteSpace=wrap;html=1;strokeWidth=2;fillColor=#dae8fc;strokeColor=#6c8ebf;" vertex="1" parent="1">
          <mxGeometry x="730" y="690" width="120" height="60" as="geometry" />
        </mxCell>
        <mxCell id="zwpz-Yyx9_aqASB1aMjd-59" style="edgeStyle=orthogonalEdgeStyle;rounded=0;orthogonalLoop=1;jettySize=auto;html=1;entryX=0.5;entryY=0;entryDx=0;entryDy=0;" edge="1" parent="1" source="zwpz-Yyx9_aqASB1aMjd-9" target="zwpz-Yyx9_aqASB1aMjd-38">
          <mxGeometry relative="1" as="geometry" />
        </mxCell>
        <mxCell id="zwpz-Yyx9_aqASB1aMjd-9" value="Load data" style="rounded=1;whiteSpace=wrap;html=1;strokeWidth=2;fillColor=#dae8fc;strokeColor=#6c8ebf;" vertex="1" parent="1">
          <mxGeometry x="350" y="820" width="120" height="60" as="geometry" />
        </mxCell>
        <mxCell id="zwpz-Yyx9_aqASB1aMjd-49" value="" style="edgeStyle=orthogonalEdgeStyle;rounded=0;orthogonalLoop=1;jettySize=auto;html=1;" edge="1" parent="1" source="zwpz-Yyx9_aqASB1aMjd-11" target="zwpz-Yyx9_aqASB1aMjd-48">
          <mxGeometry relative="1" as="geometry" />
        </mxCell>
        <mxCell id="zwpz-Yyx9_aqASB1aMjd-11" value="Load data" style="rounded=1;whiteSpace=wrap;html=1;fillColor=#dae8fc;strokeColor=#6c8ebf;strokeWidth=2;" vertex="1" parent="1">
          <mxGeometry x="540" y="820" width="120" height="60" as="geometry" />
        </mxCell>
        <mxCell id="zwpz-Yyx9_aqASB1aMjd-32" value="" style="strokeWidth=2;html=1;shape=mxgraph.flowchart.annotation_2;align=left;labelPosition=right;pointerEvents=1;fillColor=#dae8fc;strokeColor=#6c8ebf;" vertex="1" parent="1">
          <mxGeometry x="290" y="920" width="50" height="320" as="geometry" />
        </mxCell>
        <mxCell id="zwpz-Yyx9_aqASB1aMjd-37" value="For every matrix in data" style="text;html=1;strokeColor=none;fillColor=none;align=center;verticalAlign=middle;whiteSpace=wrap;rounded=0;" vertex="1" parent="1">
          <mxGeometry x="190" y="1022.5" width="90" height="115" as="geometry" />
        </mxCell>
        <mxCell id="zwpz-Yyx9_aqASB1aMjd-41" value="" style="edgeStyle=orthogonalEdgeStyle;rounded=0;orthogonalLoop=1;jettySize=auto;html=1;" edge="1" parent="1" source="zwpz-Yyx9_aqASB1aMjd-38" target="zwpz-Yyx9_aqASB1aMjd-40">
          <mxGeometry relative="1" as="geometry" />
        </mxCell>
        <mxCell id="zwpz-Yyx9_aqASB1aMjd-38" value="Parse matrix and matrix metadata" style="whiteSpace=wrap;html=1;fillColor=#dae8fc;strokeColor=#6c8ebf;rounded=1;strokeWidth=2;" vertex="1" parent="1">
          <mxGeometry x="350" y="930" width="120" height="60" as="geometry" />
        </mxCell>
        <mxCell id="zwpz-Yyx9_aqASB1aMjd-45" value="" style="edgeStyle=orthogonalEdgeStyle;rounded=0;orthogonalLoop=1;jettySize=auto;html=1;" edge="1" parent="1" source="zwpz-Yyx9_aqASB1aMjd-40" target="zwpz-Yyx9_aqASB1aMjd-44">
          <mxGeometry relative="1" as="geometry" />
        </mxCell>
        <mxCell id="zwpz-Yyx9_aqASB1aMjd-40" value="Construct DynamoDB item" style="whiteSpace=wrap;html=1;fillColor=#dae8fc;strokeColor=#6c8ebf;rounded=1;strokeWidth=2;" vertex="1" parent="1">
          <mxGeometry x="350" y="1050" width="120" height="60" as="geometry" />
        </mxCell>
        <mxCell id="zwpz-Yyx9_aqASB1aMjd-55" value="" style="edgeStyle=orthogonalEdgeStyle;rounded=0;orthogonalLoop=1;jettySize=auto;html=1;" edge="1" parent="1" source="zwpz-Yyx9_aqASB1aMjd-44" target="zwpz-Yyx9_aqASB1aMjd-54">
          <mxGeometry relative="1" as="geometry" />
        </mxCell>
        <mxCell id="zwpz-Yyx9_aqASB1aMjd-44" value="Write item to DynamoDB" style="whiteSpace=wrap;html=1;fillColor=#dae8fc;strokeColor=#6c8ebf;rounded=1;strokeWidth=2;" vertex="1" parent="1">
          <mxGeometry x="350" y="1170" width="120" height="60" as="geometry" />
        </mxCell>
        <mxCell id="zwpz-Yyx9_aqASB1aMjd-46" value="" style="strokeWidth=2;html=1;shape=mxgraph.flowchart.annotation_2;align=left;labelPosition=right;pointerEvents=1;fillColor=#dae8fc;strokeColor=#6c8ebf;direction=west;" vertex="1" parent="1">
          <mxGeometry x="700" y="920" width="50" height="200" as="geometry" />
        </mxCell>
        <mxCell id="zwpz-Yyx9_aqASB1aMjd-52" value="" style="edgeStyle=orthogonalEdgeStyle;rounded=0;orthogonalLoop=1;jettySize=auto;html=1;" edge="1" parent="1" source="zwpz-Yyx9_aqASB1aMjd-48" target="zwpz-Yyx9_aqASB1aMjd-51">
          <mxGeometry relative="1" as="geometry" />
        </mxCell>
        <mxCell id="zwpz-Yyx9_aqASB1aMjd-58" style="edgeStyle=orthogonalEdgeStyle;rounded=0;orthogonalLoop=1;jettySize=auto;html=1;exitX=0.25;exitY=0;exitDx=0;exitDy=0;" edge="1" parent="1" source="zwpz-Yyx9_aqASB1aMjd-48">
          <mxGeometry relative="1" as="geometry">
            <mxPoint x="560" y="950" as="targetPoint" />
          </mxGeometry>
        </mxCell>
        <mxCell id="zwpz-Yyx9_aqASB1aMjd-48" value="Construct DynamoDB items" style="rounded=1;whiteSpace=wrap;html=1;fillColor=#dae8fc;strokeColor=#6c8ebf;strokeWidth=2;" vertex="1" parent="1">
          <mxGeometry x="540" y="930" width="120" height="60" as="geometry" />
        </mxCell>
        <mxCell id="zwpz-Yyx9_aqASB1aMjd-50" value="For every record/row in data" style="text;html=1;strokeColor=none;fillColor=none;align=center;verticalAlign=middle;whiteSpace=wrap;rounded=0;" vertex="1" parent="1">
          <mxGeometry x="760" y="962.5" width="90" height="115" as="geometry" />
        </mxCell>
        <mxCell id="zwpz-Yyx9_aqASB1aMjd-57" value="" style="edgeStyle=orthogonalEdgeStyle;rounded=0;orthogonalLoop=1;jettySize=auto;html=1;" edge="1" parent="1" source="zwpz-Yyx9_aqASB1aMjd-51" target="zwpz-Yyx9_aqASB1aMjd-56">
          <mxGeometry relative="1" as="geometry" />
        </mxCell>
        <mxCell id="zwpz-Yyx9_aqASB1aMjd-51" value="Write items to DynamoDB" style="whiteSpace=wrap;html=1;fillColor=#dae8fc;strokeColor=#6c8ebf;rounded=1;strokeWidth=2;" vertex="1" parent="1">
          <mxGeometry x="540" y="1050" width="120" height="60" as="geometry" />
        </mxCell>
        <mxCell id="zwpz-Yyx9_aqASB1aMjd-54" value="End" style="ellipse;whiteSpace=wrap;html=1;fillColor=#d5e8d4;strokeColor=#82b366;rounded=1;strokeWidth=2;" vertex="1" parent="1">
          <mxGeometry x="370" y="1280" width="80" height="80" as="geometry" />
        </mxCell>
        <mxCell id="zwpz-Yyx9_aqASB1aMjd-56" value="End" style="ellipse;whiteSpace=wrap;html=1;fillColor=#d5e8d4;strokeColor=#82b366;rounded=1;strokeWidth=2;" vertex="1" parent="1">
          <mxGeometry x="560" y="1170" width="80" height="80" as="geometry" />
        </mxCell>
      </root>
    </mxGraphModel>
  </diagram>
</mxfile>
